<svg xmlns="http://www.w3.org/2000/svg" xmlns:xlink="http://www.w3.org/1999/xlink" width="500" zoomAndPan="magnify" viewBox="0 0 375 374.999991" height="500" preserveAspectRatio="xMidYMid meet" version="1.0"><path fill="#4f4c4c" d="M 215.359375 173.28125 C 221.761719 153.832031 245.492188 138.058594 268.355469 138.058594 C 291.226562 138.058594 304.566406 153.832031 298.164062 173.28125 C 291.753906 192.730469 268.023438 208.496094 245.15625 208.496094 C 222.292969 208.496094 208.953125 192.730469 215.359375 173.28125 Z M 251.394531 223.378906 C 256.542969 222.648438 261.640625 221.339844 266.574219 219.539062 L 272.621094 224.109375 C 276.828125 222.320312 280.90625 220.21875 284.78125 217.851562 L 284.484375 210.328125 C 288.855469 207.347656 292.867188 203.964844 296.394531 200.273438 L 305.695312 200.195312 C 308.429688 196.988281 310.839844 193.605469 312.878906 190.089844 L 306.980469 185.386719 C 307.984375 183.355469 308.835938 181.277344 309.535156 179.171875 C 310.230469 177.058594 310.738281 174.984375 311.078125 172.949219 L 320.074219 168.25 C 320.347656 164.734375 320.164062 161.351562 319.546875 158.144531 L 310.296875 158.066406 C 309.199219 154.375 307.414062 150.992188 305.011719 148.007812 L 310.265625 140.484375 C 307.945312 138.121094 305.253906 136.019531 302.222656 134.230469 L 293.164062 138.800781 C 289.421875 137 285.1875 135.6875 280.519531 134.957031 L 280.03125 127.480469 C 278.039062 127.304688 275.980469 127.214844 273.871094 127.214844 C 271.761719 127.214844 269.648438 127.304688 267.539062 127.480469 L 262.125 134.957031 C 256.976562 135.6875 251.878906 137 246.949219 138.800781 L 240.898438 134.230469 C 236.691406 136.019531 232.613281 138.121094 228.742188 140.484375 L 229.035156 148.007812 C 224.667969 150.992188 220.65625 154.375 217.125 158.066406 L 207.824219 158.144531 C 205.09375 161.351562 202.679688 164.734375 200.640625 168.25 L 206.539062 172.949219 C 205.535156 174.984375 204.683594 177.058594 203.988281 179.171875 C 203.292969 181.277344 202.78125 183.355469 202.441406 185.386719 L 193.449219 190.089844 C 193.171875 193.605469 193.355469 196.988281 193.976562 200.195312 L 203.222656 200.273438 C 204.324219 203.964844 206.105469 207.347656 208.507812 210.328125 L 203.257812 217.851562 C 205.574219 220.21875 208.265625 222.320312 211.296875 224.109375 L 220.355469 219.539062 C 224.097656 221.339844 228.335938 222.648438 233 223.378906 L 233.492188 230.859375 C 235.484375 231.035156 237.535156 231.125 239.644531 231.125 C 241.757812 231.125 243.871094 231.035156 245.980469 230.859375 L 251.394531 223.378906 " fill-opacity="1" fill-rule="nonzero"/><path fill="#3871c1" d="M 156.265625 229.910156 L 190.664062 228.402344 C 189.515625 227.421875 188.433594 226.382812 187.40625 225.308594 C 187.1875 225.085938 186.972656 224.855469 186.757812 224.625 C 186.597656 224.449219 186.4375 224.273438 186.28125 224.09375 C 184.515625 222.125 182.941406 220.03125 181.574219 217.8125 C 178.867188 213.40625 176.964844 208.535156 175.949219 203.308594 L 137.007812 207.996094 C 136.554688 213.714844 136.761719 219.246094 137.582031 224.539062 L 80.933594 233.195312 L 156.265625 229.910156 " fill-opacity="1" fill-rule="nonzero"/><path fill="#3871c1" d="M 357.636719 175.851562 L 374.511719 167.035156 C 375.023438 160.441406 374.679688 154.097656 373.519531 148.082031 L 356.171875 147.929688 C 354.113281 141.007812 350.761719 134.667969 346.257812 129.066406 L 356.109375 114.957031 C 351.757812 110.519531 346.714844 106.582031 341.03125 103.226562 L 324.039062 111.796875 C 317.019531 108.417969 309.074219 105.960938 300.324219 104.589844 L 299.40625 90.570312 C 295.667969 90.238281 291.8125 90.066406 287.851562 90.066406 C 283.898438 90.066406 279.929688 90.238281 275.976562 90.570312 L 265.824219 104.589844 C 256.167969 105.960938 246.605469 108.417969 237.355469 111.796875 L 226.011719 103.226562 C 218.117188 106.582031 210.46875 110.519531 203.207031 114.957031 L 203.761719 129.066406 C 196.714844 133.882812 190.160156 139.25 184.257812 145.058594 L 0.0117188 171.269531 L 151.644531 165.105469 L 183.699219 163.804688 C 186.34375 159.058594 189.539062 154.503906 193.171875 150.179688 L 193.175781 150.164062 C 195.304688 147.628906 197.585938 145.175781 200.007812 142.816406 C 219.917969 123.414062 249.074219 110.410156 277.511719 110.410156 C 320.402344 110.410156 345.425781 139.984375 333.410156 176.46875 C 321.394531 212.949219 276.886719 242.523438 233.996094 242.523438 C 220.609375 242.523438 208.964844 239.632812 199.640625 234.5625 L 174.671875 235.652344 L 159.03125 236.335938 C 160.761719 239.738281 162.84375 242.957031 165.261719 245.957031 L 155.40625 260.070312 C 159.753906 264.507812 164.804688 268.445312 170.488281 271.800781 L 187.480469 263.230469 C 194.496094 266.609375 202.445312 269.066406 211.195312 270.441406 L 212.113281 284.457031 C 215.851562 284.789062 219.707031 284.960938 223.65625 284.960938 C 227.621094 284.960938 231.589844 284.789062 235.542969 284.457031 L 245.695312 270.441406 C 255.351562 269.066406 264.914062 266.609375 274.160156 263.230469 L 285.503906 271.800781 C 293.398438 268.445312 301.042969 264.507812 308.3125 260.070312 L 307.757812 245.957031 C 315.953125 240.359375 323.480469 234.015625 330.101562 227.097656 L 347.539062 226.953125 C 352.664062 220.929688 357.1875 214.589844 361.019531 207.996094 L 349.953125 199.175781 C 351.832031 195.367188 353.4375 191.472656 354.738281 187.515625 C 356.042969 183.554688 357 179.667969 357.636719 175.851562 " fill-opacity="1" fill-rule="nonzero"/><path fill="#3871c1" d="M 50.84375 201.902344 L 154.144531 197.703125 L 175.15625 196.847656 C 175.085938 195.4375 175.078125 194 175.128906 192.546875 C 175.226562 189.789062 175.546875 186.964844 176.105469 184.078125 C 176.59375 181.582031 177.257812 179.042969 178.105469 176.464844 C 178.773438 174.429688 179.550781 172.417969 180.417969 170.429688 L 170.050781 170.851562 L 156.007812 171.421875 L 161.566406 175.851562 C 159.800781 179.433594 158.277344 183.085938 157.023438 186.796875 L 50.84375 201.902344 " fill-opacity="1" fill-rule="nonzero"/></svg>