<svg xmlns="http://www.w3.org/2000/svg" xmlns:xlink="http://www.w3.org/1999/xlink" width="500" zoomAndPan="magnify" viewBox="0 0 375 374.999991" height="500" preserveAspectRatio="xMidYMid meet" version="1.0"><defs><clipPath id="75bced4c5f"><path d="M 0 55.753906 L 243 55.753906 L 243 305.503906 L 0 305.503906 Z M 0 55.753906 " clip-rule="nonzero"/></clipPath></defs><g clip-path="url(#75bced4c5f)"><path fill="#ff1616" d="M 25.699219 191.28125 C 25.304688 187.710938 25.082031 184.085938 25.082031 180.40625 C 25.082031 176.726562 25.304688 173.101562 25.699219 169.527344 L 0.105469 156.503906 C 2.054688 146.457031 5.214844 136.847656 9.421875 127.820312 L 9.421875 127.816406 L 37.789062 132.328125 C 41.398438 125.988281 45.683594 120.078125 50.574219 114.726562 L 37.53125 89.171875 C 44.890625 82.320312 53.074219 76.347656 61.921875 71.421875 L 82.210938 91.738281 C 88.761719 88.761719 95.6875 86.464844 102.914062 84.988281 L 107.378906 56.675781 L 107.378906 56.671875 C 112.328125 56.078125 117.355469 55.730469 122.460938 55.730469 C 127.574219 55.730469 132.597656 56.078125 137.542969 56.671875 C 137.546875 56.671875 137.550781 56.671875 137.550781 56.675781 L 142.015625 84.988281 C 149.242188 86.464844 156.164062 88.761719 162.714844 91.738281 L 183.003906 71.421875 C 191.855469 76.347656 200.035156 82.320312 207.394531 89.171875 L 194.351562 114.726562 C 199.242188 120.078125 203.527344 125.988281 207.140625 132.328125 L 235.5 127.816406 L 235.503906 127.816406 C 238.171875 133.542969 240.410156 139.5 242.195312 145.648438 L 180.835938 145.648438 C 168.980469 125.78125 147.277344 112.46875 122.460938 112.46875 C 84.941406 112.46875 54.527344 142.886719 54.527344 180.40625 C 54.527344 217.925781 84.941406 248.339844 122.460938 248.339844 C 147.277344 248.339844 168.980469 235.03125 180.832031 215.160156 L 242.195312 215.160156 C 240.410156 221.3125 238.171875 227.269531 235.503906 232.988281 L 235.5 232.992188 L 207.140625 228.480469 C 203.527344 234.824219 199.242188 240.734375 194.355469 246.085938 L 207.394531 271.636719 C 200.035156 278.488281 191.855469 284.460938 183.003906 289.390625 L 162.710938 269.074219 C 156.164062 272.050781 149.242188 274.347656 142.015625 275.820312 L 137.550781 304.132812 C 137.550781 304.136719 137.546875 304.136719 137.542969 304.136719 C 132.597656 304.734375 127.574219 305.078125 122.460938 305.078125 C 117.355469 305.078125 112.328125 304.734375 107.378906 304.136719 L 102.914062 275.820312 C 95.6875 274.347656 88.761719 272.050781 82.210938 269.074219 L 61.921875 289.390625 C 53.074219 284.460938 44.890625 278.492188 37.53125 271.636719 L 50.574219 246.085938 C 45.679688 240.734375 41.398438 234.824219 37.789062 228.480469 L 9.421875 232.988281 C 5.214844 223.960938 2.054688 214.351562 0.105469 204.304688 L 25.699219 191.28125 " fill-opacity="1" fill-rule="nonzero"/></g><path fill="#ff1616" d="M 308.171875 178.714844 L 321.976562 154.804688 C 322.578125 153.761719 323.691406 153.117188 324.898438 153.117188 L 374.96875 153.117188 C 366.125 139.816406 351.015625 131.039062 333.847656 131.039062 C 315.644531 131.039062 299.78125 140.917969 291.222656 155.585938 L 83.972656 155.585938 C 80.488281 155.585938 77.664062 158.40625 77.664062 161.886719 C 77.664062 165.371094 80.488281 168.191406 83.972656 168.191406 L 189.84375 168.191406 C 191.800781 168.191406 193.390625 169.78125 193.390625 171.738281 C 193.390625 173.695312 191.800781 175.28125 189.84375 175.28125 L 117.363281 175.28125 C 114.535156 175.28125 112.242188 177.578125 112.242188 180.40625 C 112.242188 183.234375 114.535156 185.527344 117.363281 185.527344 L 189.84375 185.527344 C 191.800781 185.527344 193.390625 187.113281 193.390625 189.074219 C 193.390625 191.03125 191.800781 192.617188 189.84375 192.617188 L 157.242188 192.617188 C 153.757812 192.617188 150.9375 195.441406 150.9375 198.921875 C 150.9375 202.402344 153.757812 205.222656 157.242188 205.222656 L 291.222656 205.222656 C 299.78125 219.890625 315.644531 229.769531 333.847656 229.769531 C 351.015625 229.769531 366.125 220.996094 374.96875 207.691406 L 324.898438 207.691406 C 323.691406 207.691406 322.578125 207.050781 321.976562 206.003906 L 308.171875 182.09375 C 307.566406 181.046875 307.566406 179.761719 308.171875 178.714844 " fill-opacity="1" fill-rule="nonzero"/></svg>